<svg width="14" height="13" viewBox="0 0 14 13" fill="none" xmlns="http://www.w3.org/2000/svg">
<path d="M8.40994 6.50019L12.7099 2.21019C12.8982 2.02188 13.004 1.76649 13.004 1.50019C13.004 1.23388 12.8982 0.978489 12.7099 0.790185C12.5216 0.601882 12.2662 0.496094 11.9999 0.496094C11.7336 0.496094 11.4782 0.601882 11.2899 0.790185L6.99994 5.09019L2.70994 0.790185C2.52164 0.601882 2.26624 0.496094 1.99994 0.496094C1.73364 0.496094 1.47824 0.601882 1.28994 0.790185C1.10164 0.978489 0.995847 1.23388 0.995847 1.50019C0.995847 1.76649 1.10164 2.02188 1.28994 2.21019L5.58994 6.50019L1.28994 10.7902C1.19621 10.8831 1.12182 10.9937 1.07105 11.1156C1.02028 11.2375 0.994141 11.3682 0.994141 11.5002C0.994141 11.6322 1.02028 11.7629 1.07105 11.8848C1.12182 12.0066 1.19621 12.1172 1.28994 12.2102C1.3829 12.3039 1.4935 12.3783 1.61536 12.4291C1.73722 12.4798 1.86793 12.506 1.99994 12.506C2.13195 12.506 2.26266 12.4798 2.38452 12.4291C2.50638 12.3783 2.61698 12.3039 2.70994 12.2102L6.99994 7.91019L11.2899 12.2102C11.3829 12.3039 11.4935 12.3783 11.6154 12.4291C11.7372 12.4798 11.8679 12.506 11.9999 12.506C12.132 12.506 12.2627 12.4798 12.3845 12.4291C12.5064 12.3783 12.617 12.3039 12.7099 12.2102C12.8037 12.1172 12.8781 12.0066 12.9288 11.8848C12.9796 11.7629 13.0057 11.6322 13.0057 11.5002C13.0057 11.3682 12.9796 11.2375 12.9288 11.1156C12.8781 10.9937 12.8037 10.8831 12.7099 10.7902L8.40994 6.50019Z" fill="white"/>
</svg>
